<?xml version="1.0" encoding="utf-8"?>
<!-- Generator: Adobe Illustrator 24.0.2, SVG Export Plug-In . SVG Version: 6.00 Build 0)  -->
<svg version="1.1" id="Layer_1" xmlns="http://www.w3.org/2000/svg" xmlns:xlink="http://www.w3.org/1999/xlink" x="0px" y="0px"
	 viewBox="0 0 500 359.3" style="enable-background:new 0 0 500 359.3;" xml:space="preserve">
<style type="text/css">
	.st0{fill:#FFFFFF;}
</style>
<g>
	<path class="st0" d="M471.3,15L250,333.1L28.7,15H471.3 M500,0H0l250,359.3L500,0L500,0z"/>
</g>
<g>
	<path class="st0" d="M465.6,15L250,247.5L34.4,15H465.6 M500,0H0l250,269.5L500,0L500,0z"/>
</g>
<g>
	<path class="st0" d="M453.4,15L250,161.2L46.6,15H453.4 M500,0H0l250,179.7L500,0L500,0z"/>
</g>
<g>
	<path class="st0" d="M413.9,15L250,73.9L86.1,15H413.9 M500,0H0l250,89.8L500,0L500,0z"/>
</g>
</svg>
